<?xml version="1.0" standalone="no"?>
<!DOCTYPE svg PUBLIC "-//W3C//DTD SVG 20010904//EN"
 "http://www.w3.org/TR/2001/REC-SVG-20010904/DTD/svg10.dtd">
<svg version="1.0" xmlns="http://www.w3.org/2000/svg"
 width="350.000000pt" height="350.000000pt" viewBox="0 0 350.000000 350.000000"
 preserveAspectRatio="xMidYMid meet">

<g transform="translate(0.000000,350.000000) scale(0.100000,-0.100000)"
fill="#000000" stroke="none">
<path d="M1940 2907 c-34 -17 -55 -57 -46 -90 4 -16 38 -53 91 -97 129 -108
186 -206 164 -284 -18 -64 -72 -73 -165 -26 -50 24 -62 36 -73 67 -55 155
-205 301 -371 360 -98 35 -262 43 -359 18 -81 -21 -181 -71 -246 -123 l-49
-40 -53 45 -53 46 -41 -29 c-63 -43 -146 -141 -182 -213 -25 -51 -33 -81 -35
-137 -2 -40 0 -80 6 -90 5 -10 47 -32 93 -50 l84 -31 11 -69 c27 -156 74 -246
193 -365 47 -47 113 -101 146 -120 55 -32 60 -39 68 -80 12 -63 2 -197 -18
-247 -35 -87 -111 -118 -157 -63 -29 34 -38 57 -72 179 -33 119 -70 194 -121
246 -61 63 -106 81 -200 81 -70 -1 -88 -5 -140 -32 -33 -17 -81 -50 -107 -73
-40 -35 -48 -48 -48 -76 0 -35 28 -74 61 -86 11 -5 9 -9 -7 -22 l-22 -15 23
-63 23 -63 107 -8 c59 -4 109 -6 111 -4 2 2 7 28 11 58 8 55 16 62 88 92 6 2
-9 32 -33 66 -50 72 -34 85 23 19 34 -41 50 -80 99 -258 36 -127 110 -208 210
-231 83 -18 153 6 226 79 68 69 94 130 112 267 l13 96 40 -52 40 -52 4 -110
c6 -177 -12 -208 -142 -247 -93 -28 -144 -59 -202 -121 -72 -78 -125 -218
-109 -291 7 -34 48 -68 81 -68 39 0 83 51 83 97 0 52 43 136 88 173 21 17 68
40 107 52 100 30 137 51 183 103 56 64 74 119 78 250 2 61 4 112 4 115 1 3 13
-22 27 -55 21 -45 27 -76 27 -125 -1 -74 -17 -113 -87 -203 -90 -115 -115
-212 -83 -334 19 -78 70 -179 95 -193 31 -16 66 -12 95 11 35 28 34 70 -5 154
-45 96 -45 156 1 224 19 28 40 51 45 51 6 -1 77 -86 160 -190 l150 -190 306 0
307 0 41 49 c23 27 41 53 41 59 0 5 -16 44 -35 86 -19 43 -35 79 -35 81 0 3
21 11 47 18 45 13 49 17 63 65 9 28 18 53 21 56 2 3 40 -4 82 -15 l77 -20 25
28 c50 58 50 56 7 249 l-41 178 24 22 c19 17 25 33 25 63 0 22 -4 42 -9 45 -5
3 2 38 15 76 69 198 35 390 -93 530 -206 224 -571 208 -752 -34 -33 -43 -37
-46 -82 -46 -59 0 -63 9 -53 120 l7 80 36 -7 c95 -21 187 3 242 64 51 55 64
91 64 183 -1 72 -5 94 -28 142 -41 84 -103 158 -194 232 -89 71 -116 83 -153
63z m-398 -189 c40 -20 92 -53 114 -72 82 -70 134 -185 119 -263 l-7 -38 -22
61 c-28 75 -50 108 -122 174 -92 83 -243 148 -354 151 l-35 1 30 14 c21 10 56
13 117 11 76 -3 95 -8 160 -39z m-651 -277 c-9 -16 -7 -23 11 -35 33 -23 38
-20 38 22 1 31 2 34 12 18 7 -13 7 -29 -1 -57 -12 -41 -35 -60 -73 -58 -20 1
-19 2 10 15 39 17 40 26 6 44 -23 13 -27 12 -35 -3 -15 -25 -32 -22 -19 4 9
17 8 25 -7 41 -18 21 -18 21 8 15 18 -5 31 -2 39 8 17 21 24 12 11 -14z m1728
-362 c69 -30 124 -82 162 -151 31 -58 34 -70 34 -150 0 -47 -3 -90 -7 -93 -4
-4 -39 22 -79 59 -40 37 -100 80 -138 98 -61 31 -72 33 -166 32 -90 0 -113 -4
-228 -42 -70 -23 -133 -42 -140 -42 -10 0 -67 139 -67 163 0 4 12 7 26 7 16 0
37 -13 60 -36 29 -32 38 -36 66 -30 19 3 44 19 58 36 23 28 29 30 96 30 81 0
110 14 100 48 -6 18 -15 22 -52 22 -24 0 -44 4 -44 9 0 13 80 50 131 61 57 11
133 3 188 -21z m-832 -31 c21 -23 26 -42 24 -87 -1 -24 -1 -24 -22 -5 -26 24
-55 8 -52 -30 2 -32 -4 -32 -34 -4 -47 44 -17 148 42 148 12 0 31 -10 42 -22z
m-135 -344 c22 -14 -32 -34 -71 -28 -33 5 -41 4 -41 -9 0 -8 11 -18 25 -21 14
-4 23 -11 20 -16 -18 -29 -108 9 -103 43 5 33 44 49 107 42 29 -3 58 -8 63
-11z m690 -321 c2 -30 8 -38 31 -46 24 -8 33 -5 53 14 l25 23 26 -27 27 -26
-23 -25 c-21 -23 -23 -28 -11 -56 10 -25 18 -30 46 -30 33 0 34 -1 34 -40 0
-39 -1 -40 -34 -40 -28 0 -36 -5 -46 -30 -11 -28 -10 -33 9 -54 25 -27 26 -34
4 -58 -21 -23 -45 -23 -67 1 -15 16 -23 18 -46 9 -24 -8 -29 -16 -32 -46 -3
-35 -5 -37 -38 -37 -33 0 -35 2 -38 37 -3 31 -8 38 -34 47 -27 10 -35 8 -55
-11 -25 -24 -46 -19 -67 15 -8 12 -5 22 13 41 21 23 23 28 11 56 -10 25 -18
30 -46 30 -33 0 -34 1 -34 40 0 39 1 40 33 40 27 0 36 6 46 26 10 23 9 30 -9
49 -26 28 -25 37 5 65 l25 23 24 -22 c20 -19 29 -22 53 -14 23 8 29 16 31 46
3 36 5 37 42 37 37 0 39 -1 42 -37z"/>
<path d="M2229 1241 c-63 -63 -19 -176 70 -176 59 0 101 43 101 103 0 93 -105
138 -171 73z"/>
</g>
</svg>
